<?xml version="1.0" encoding="utf-8"?>
<svg version="1.1" id="Capa_1" xmlns="http://www.w3.org/2000/svg" xmlns:xlink="http://www.w3.org/1999/xlink" x="0" y="0" viewBox="0 0 200 200" style="enable-background:new 0 0 200 200" xml:space="preserve">
  <style type="text/css">
    .st0{fill:#7c7c7c}.st2{fill:#fff}.st3{fill:#1d1d1b}
  </style>
  <path class="st0" d="M193.85 196.4H6.15c-2.58 0-4.68-2.09-4.68-4.68V8.28c0-2.58 2.09-4.68 4.68-4.68h187.7c2.58 0 4.68 2.09 4.68 4.68v183.45c0 2.57-2.1 4.67-4.68 4.67z"/>
  <defs>
    <path id="SVGID_1_" d="M193.85 196.4H6.15c-2.58 0-4.68-2.09-4.68-4.68V8.28c0-2.58 2.09-4.68 4.68-4.68h187.7c2.58 0 4.68 2.09 4.68 4.68v183.45c0 2.57-2.1 4.67-4.68 4.67z"/>
  </defs>
  <clipPath id="SVGID_00000181801307917601497390000000702829254632334495_">
    <use xlink:href="#SVGID_1_" style="overflow:visible"/>
  </clipPath>
  <g style="clip-path:url(#SVGID_00000181801307917601497390000000702829254632334495_)">
    <g id="arm_00000121268602697478495160000010404726297879090344_">
      <path class="st2" d="M-148.14 181.47 92.9 127.52l18.16-56.47-61.62 13.49-192.27 43.29c-3.24.73-5.3 3.63-5.31 6.82v46.82"/>
      <path class="st3" d="m128.42 72.35-19.03 1.06-1.97.8-9.32 29.16c-3.16 14.01-14.29 25.05-28.55 28.34l-206.52 46.89-11.17 2.46v22.68c0 4.63 4.31 8.05 8.82 7.01l9.25-2.14 197.62-44.8 26.1-.55c11.62-.25 23.19-1.76 34.49-4.51l25.77-6.72-25.49-79.68z"/>
      <path class="st2" d="M175.67 60.47c-.01-.85-.07-1.73-.17-2.62-.87-7.17-3.93-12.64-10.71-11.9l-32.07 3.42c-6.78.74-11.58 7.15-10.71 14.32l53.49-5.84c.1.9.16 1.77.17 2.62z"/>
      <path class="st3" d="M182.16 83.42c.87 7.17-1.87 13.62-8.65 14.36l-40.72 4.18c-6.78.74-12.99-4.47-13.86-11.64l63.23-6.9z"/>
      <path class="st2" d="m170.45 71.32-40.82 4.69c-6.78.74-11.58 7.15-10.71 14.32l63.24-6.9c-.87-7.18-4.93-12.85-11.71-12.11z"/>
      <path class="st3" d="M175.5 57.71c.87 7.17-1.77 13.17-8.55 13.91l-32.11 3.68c-6.78.74-12.99-4.47-13.86-11.64l4.84-.53 6.58-.72 43.1-4.7zM180.83 109.87c.87 7.17-1.77 13.17-8.55 13.91l-32.11 3.68c-6.78.74-12.99-4.47-13.86-11.64l4.84-.53 6.58-.72 43.1-4.7z"/>
      <path class="st2" d="m137.72 114.57 43.11-4.71c-.87-7.17-4.68-12.4-11.46-11.66l-32.36 3.29c-6.78.74-11.58 7.15-10.71 14.32l4.84-.53 6.58-.71z"/>
      <path class="st3" d="m179.02 135.6.18 1.5c.82 6.75-3.69 12.79-10.09 13.49l-20.44 2.23c-6.78.74-12.99-4.47-13.86-11.64l44.21-5.58z"/>
      <path class="st2" d="m165.95 124.64-20.44 2.23c-6.78.74-11.58 7.15-10.71 14.32l44.21-5.58c-.82-6.76-6.67-11.67-13.06-10.97z"/>
      <path class="st3" d="M157.04 93.81c-1.73 3-5.02 5.01-8.8 4.85l-3.06-.14c-4.02-.18-7.49-2.86-8.68-6.71l-4.37-14.18-3.87-19.55-1.82 7.12-18.26.89-6.74-5.56 5.98 13.67 2.11-.38 18.9-1.48 1.06 3.42h-.01l5.9 19.14c.1.34.23.66.37.98l.02.05-.01-.03c1.44 3.3 4.64 5.54 8.3 5.71l3.06.14c4.96.23 9.09-3.32 9.92-7.94z"/>
      <path class="st2" d="m108.18 66.09 18.26-.89 1.82-7.12 3.87 19.55 4.37 14.18c1.19 3.85 4.66 6.53 8.68 6.71l3.06.14c3.77.17 7.07-1.84 8.8-4.85-.3 1.7-1.05 3.25-2.13 4.53 1.63-1.93 2.53-4.5 2.23-7.25l-4.25-39.48c-.84-7.75-7.66-13.44-15.44-12.85-20.39 1.54-56.16 4.69-58.19 7.92L54.62 83.75l52.8-9.54-5.98-13.67 6.74 5.55z"/>
    </g>
  </g>
</svg>
